<?xml version="1.0" encoding="UTF-8" standalone="no"?>
<!DOCTYPE svg PUBLIC "-//W3C//DTD SVG 1.1//EN"
 "http://www.w3.org/Graphics/SVG/1.1/DTD/svg11.dtd">
<!-- Generated by graphviz version 2.38.0 (20140413.2041)
 -->
<!-- Title: G Pages: 1 -->
<svg width="849pt" height="2265pt"
 viewBox="0.00 0.00 849.18 2264.61" xmlns="http://www.w3.org/2000/svg" xmlns:xlink="http://www.w3.org/1999/xlink">
<g id="graph0" class="graph" transform="scale(1 1) rotate(0) translate(4 2260.61)">
<title>G</title>
<polygon fill="white" stroke="none" points="-4,4 -4,-2260.61 845.176,-2260.61 845.176,4 -4,4"/>
<!-- n1 -->
<g id="node1" class="node"><title>n1</title>
<g id="a_node1"><a xlink:title="[./model/ConvLSTM.lua]:96_">
<ellipse fill="none" stroke="black" cx="502.705" cy="-511.696" rx="125.792" ry="45.011"/>
<text text-anchor="middle" x="502.705" y="-528.496" font-family="Times,serif" font-size="14.00">Node1</text>
<text text-anchor="start" x="421.86" y="-514.496" font-family="Times,serif" font-size="14.00">module = nn.CAddTable</text>
<text text-anchor="start" x="421.86" y="-500.496" font-family="Times,serif" font-size="14.00">reverseMap = {}</text>
<text text-anchor="middle" x="502.705" y="-486.496" font-family="Times,serif" font-size="14.00">mapindex = {Node5,Node6}</text>
</a>
</g>
</g>
<!-- n2 -->
<g id="node2" class="node"><title>n2</title>
<g id="a_node2"><a xlink:title="[[C]]:&#45;1_">
<ellipse fill="none" stroke="black" cx="650.705" cy="-45.2548" rx="154.526" ry="45.011"/>
<text text-anchor="middle" x="650.705" y="-62.0548" font-family="Times,serif" font-size="14.00">Node2</text>
<text text-anchor="start" x="549.448" y="-48.0548" font-family="Times,serif" font-size="14.00">input = {}</text>
<text text-anchor="start" x="549.448" y="-34.0548" font-family="Times,serif" font-size="14.00">mapindex = {Node1,Node3,Node4}</text>
<text text-anchor="middle" x="650.705" y="-20.0548" font-family="Times,serif" font-size="14.00">reverseMap = {}</text>
</a>
</g>
</g>
<!-- n1&#45;&gt;n2 -->
<g id="edge1" class="edge"><title>n1&#45;&gt;n2</title>
<path fill="none" stroke="black" d="M492.479,-466.378C477.583,-390.772 458.123,-234.572 521.705,-126.51 530.371,-111.782 542.912,-99.3688 556.812,-89.0418"/>
<polygon fill="black" stroke="black" points="558.96,-91.8104 565.135,-83.2007 554.939,-86.0808 558.96,-91.8104"/>
</g>
<!-- n8 -->
<g id="node8" class="node"><title>n8</title>
<g id="a_node8"><a xlink:title="[./model/ConvLSTM.lua]:101_">
<ellipse fill="none" stroke="black" cx="618.705" cy="-395.085" rx="83.6272" ry="35.2113"/>
<text text-anchor="middle" x="618.705" y="-404.885" font-family="Times,serif" font-size="14.00">Node8</text>
<text text-anchor="start" x="567.617" y="-390.885" font-family="Times,serif" font-size="14.00">module = nn.Tanh</text>
<text text-anchor="middle" x="618.705" y="-376.885" font-family="Times,serif" font-size="14.00">reverseMap = {}</text>
</a>
</g>
</g>
<!-- n1&#45;&gt;n8 -->
<g id="edge14" class="edge"><title>n1&#45;&gt;n8</title>
<path fill="none" stroke="black" d="M544.912,-468.994C556.178,-457.864 568.304,-445.883 579.406,-434.914"/>
<polygon fill="black" stroke="black" points="581.881,-437.388 586.535,-427.87 576.961,-432.409 581.881,-437.388"/>
</g>
<!-- n3 -->
<g id="node3" class="node"><title>n3</title>
<g id="a_node3"><a xlink:title="[./model/ConvLSTM.lua]:101_">
<ellipse fill="none" stroke="black" cx="697.705" cy="-278.475" rx="125.792" ry="45.011"/>
<text text-anchor="middle" x="697.705" y="-295.275" font-family="Times,serif" font-size="14.00">Node3</text>
<text text-anchor="start" x="616.86" y="-281.275" font-family="Times,serif" font-size="14.00">module = nn.CMulTable</text>
<text text-anchor="start" x="616.86" y="-267.275" font-family="Times,serif" font-size="14.00">reverseMap = {}</text>
<text text-anchor="middle" x="697.705" y="-253.275" font-family="Times,serif" font-size="14.00">mapindex = {Node7,Node8}</text>
</a>
</g>
</g>
<!-- n3&#45;&gt;n2 -->
<g id="edge2" class="edge"><title>n3&#45;&gt;n2</title>
<path fill="none" stroke="black" d="M751.504,-237.091C762.945,-225.59 773.451,-212.094 779.705,-197.22 791.888,-168.251 794.969,-153.981 779.705,-126.51 771.406,-111.572 759.046,-99.0557 745.212,-88.691"/>
<polygon fill="black" stroke="black" points="747.104,-85.7423 736.916,-82.835 743.067,-91.4612 747.104,-85.7423"/>
</g>
<!-- n4 -->
<g id="node4" class="node"><title>n4</title>
<g id="a_node4"><a xlink:title="[./model/ConvLSTM.lua]:110_">
<ellipse fill="none" stroke="black" cx="650.705" cy="-161.865" rx="120.136" ry="35.2113"/>
<text text-anchor="middle" x="650.705" y="-171.665" font-family="Times,serif" font-size="14.00">decoder (4)</text>
<text text-anchor="start" x="573.804" y="-157.665" font-family="Times,serif" font-size="14.00">module = nn.Linear(8 &#45;&gt; 2)</text>
<text text-anchor="middle" x="650.705" y="-143.665" font-family="Times,serif" font-size="14.00">reverseMap = {}</text>
</a>
</g>
</g>
<!-- n3&#45;&gt;n4 -->
<g id="edge8" class="edge"><title>n3&#45;&gt;n4</title>
<path fill="none" stroke="black" d="M679.668,-233.492C676.056,-224.684 672.262,-215.431 668.653,-206.63"/>
<polygon fill="black" stroke="black" points="671.859,-205.225 664.827,-197.3 665.383,-207.881 671.859,-205.225"/>
</g>
<!-- n4&#45;&gt;n2 -->
<g id="edge3" class="edge"><title>n4&#45;&gt;n2</title>
<path fill="none" stroke="black" d="M650.705,-126.478C650.705,-118.422 650.705,-109.642 650.705,-100.942"/>
<polygon fill="black" stroke="black" points="654.205,-100.815 650.705,-90.8148 647.205,-100.815 654.205,-100.815"/>
</g>
<!-- n5 -->
<g id="node5" class="node"><title>n5</title>
<g id="a_node5"><a xlink:title="[./model/ConvLSTM.lua]:97_">
<ellipse fill="none" stroke="black" cx="218.705" cy="-638.205" rx="130.692" ry="45.011"/>
<text text-anchor="middle" x="218.705" y="-655.005" font-family="Times,serif" font-size="14.00">Node5</text>
<text text-anchor="start" x="134.36" y="-641.005" font-family="Times,serif" font-size="14.00">module = nn.CMulTable</text>
<text text-anchor="start" x="134.36" y="-627.005" font-family="Times,serif" font-size="14.00">reverseMap = {}</text>
<text text-anchor="middle" x="218.705" y="-613.005" font-family="Times,serif" font-size="14.00">mapindex = {Node9,Node10}</text>
</a>
</g>
</g>
<!-- n5&#45;&gt;n1 -->
<g id="edge4" class="edge"><title>n5&#45;&gt;n1</title>
<path fill="none" stroke="black" d="M298.571,-602.191C334.719,-586.343 377.558,-567.562 414.635,-551.307"/>
<polygon fill="black" stroke="black" points="416.177,-554.453 423.93,-547.232 413.366,-548.042 416.177,-554.453"/>
</g>
<!-- n6 -->
<g id="node6" class="node"><title>n6</title>
<g id="a_node6"><a xlink:title="[./model/ConvLSTM.lua]:98_">
<ellipse fill="none" stroke="black" cx="502.705" cy="-638.205" rx="135.366" ry="45.011"/>
<text text-anchor="middle" x="502.705" y="-655.005" font-family="Times,serif" font-size="14.00">Node6</text>
<text text-anchor="start" x="415.116" y="-641.005" font-family="Times,serif" font-size="14.00">module = nn.CMulTable</text>
<text text-anchor="start" x="415.116" y="-627.005" font-family="Times,serif" font-size="14.00">reverseMap = {}</text>
<text text-anchor="middle" x="502.705" y="-613.005" font-family="Times,serif" font-size="14.00">mapindex = {Node11,Node12}</text>
</a>
</g>
</g>
<!-- n6&#45;&gt;n1 -->
<g id="edge5" class="edge"><title>n6&#45;&gt;n1</title>
<path fill="none" stroke="black" d="M502.705,-592.606C502.705,-584.371 502.705,-575.687 502.705,-567.198"/>
<polygon fill="black" stroke="black" points="506.205,-566.983 502.705,-556.983 499.205,-566.983 506.205,-566.983"/>
</g>
<!-- n7 -->
<g id="node7" class="node"><title>n7</title>
<g id="a_node7"><a xlink:title="[./model/ConvLSTM.lua]:92_">
<ellipse fill="none" stroke="black" cx="743.705" cy="-511.696" rx="97.4405" ry="35.2113"/>
<text text-anchor="middle" x="743.705" y="-521.496" font-family="Times,serif" font-size="14.00">Node7</text>
<text text-anchor="start" x="682.783" y="-507.496" font-family="Times,serif" font-size="14.00">module = nn.Sigmoid</text>
<text text-anchor="middle" x="743.705" y="-493.496" font-family="Times,serif" font-size="14.00">reverseMap = {}</text>
</a>
</g>
</g>
<!-- n7&#45;&gt;n3 -->
<g id="edge6" class="edge"><title>n7&#45;&gt;n3</title>
<path fill="none" stroke="black" d="M736.868,-476.329C729.392,-438.748 717.308,-378.007 708.538,-333.926"/>
<polygon fill="black" stroke="black" points="711.937,-333.071 706.553,-323.947 705.071,-334.437 711.937,-333.071"/>
</g>
<!-- n8&#45;&gt;n3 -->
<g id="edge7" class="edge"><title>n8&#45;&gt;n3</title>
<path fill="none" stroke="black" d="M641.555,-360.935C647.964,-351.639 655.088,-341.303 662.051,-331.202"/>
<polygon fill="black" stroke="black" points="665.049,-333.019 667.842,-322.799 659.285,-329.046 665.049,-333.019"/>
</g>
<!-- n9 -->
<g id="node9" class="node"><title>n9</title>
<g id="a_node9"><a xlink:title="[./model/ConvLSTM.lua]:91_">
<ellipse fill="none" stroke="black" cx="219.705" cy="-754.815" rx="97.4405" ry="35.2113"/>
<text text-anchor="middle" x="219.705" y="-764.615" font-family="Times,serif" font-size="14.00">Node9</text>
<text text-anchor="start" x="158.783" y="-750.615" font-family="Times,serif" font-size="14.00">module = nn.Sigmoid</text>
<text text-anchor="middle" x="219.705" y="-736.615" font-family="Times,serif" font-size="14.00">reverseMap = {}</text>
</a>
</g>
</g>
<!-- n9&#45;&gt;n5 -->
<g id="edge9" class="edge"><title>n9&#45;&gt;n5</title>
<path fill="none" stroke="black" d="M219.405,-719.429C219.335,-711.372 219.258,-702.592 219.183,-693.892"/>
<polygon fill="black" stroke="black" points="222.681,-693.734 219.094,-683.765 215.682,-693.795 222.681,-693.734"/>
</g>
<!-- n10 -->
<g id="node10" class="node"><title>n10</title>
<g id="a_node10"><a xlink:title="[./model/ConvLSTM.lua]:23_">
<ellipse fill="none" stroke="black" cx="94.7054" cy="-1648.1" rx="94.9112" ry="35.2113"/>
<text text-anchor="middle" x="94.7054" y="-1657.9" font-family="Times,serif" font-size="14.00">Node10</text>
<text text-anchor="start" x="35.7386" y="-1643.9" font-family="Times,serif" font-size="14.00">module = nn.Identity</text>
<text text-anchor="middle" x="94.7054" y="-1629.9" font-family="Times,serif" font-size="14.00">reverseMap = {}</text>
</a>
</g>
</g>
<!-- n10&#45;&gt;n5 -->
<g id="edge10" class="edge"><title>n10&#45;&gt;n5</title>
<path fill="none" stroke="black" d="M94.7054,-1612.68C94.7054,-1570.83 94.7054,-1498.08 94.7054,-1435.68 94.7054,-1435.68 94.7054,-1435.68 94.7054,-870.426 94.7054,-802.8 80.0045,-778.089 113.705,-719.46 121.444,-705.998 132.428,-694.045 144.403,-683.744"/>
<polygon fill="black" stroke="black" points="146.863,-686.253 152.39,-677.214 142.433,-680.833 146.863,-686.253"/>
</g>
<!-- n11 -->
<g id="node11" class="node"><title>n11</title>
<g id="a_node11"><a xlink:title="[./model/ConvLSTM.lua]:90_">
<ellipse fill="none" stroke="black" cx="432.705" cy="-754.815" rx="97.4405" ry="35.2113"/>
<text text-anchor="middle" x="432.705" y="-764.615" font-family="Times,serif" font-size="14.00">Node11</text>
<text text-anchor="start" x="371.783" y="-750.615" font-family="Times,serif" font-size="14.00">module = nn.Sigmoid</text>
<text text-anchor="middle" x="432.705" y="-736.615" font-family="Times,serif" font-size="14.00">reverseMap = {}</text>
</a>
</g>
</g>
<!-- n11&#45;&gt;n6 -->
<g id="edge11" class="edge"><title>n11&#45;&gt;n6</title>
<path fill="none" stroke="black" d="M453.329,-720.048C458.763,-711.151 464.757,-701.337 470.64,-691.706"/>
<polygon fill="black" stroke="black" points="473.766,-693.302 475.992,-682.943 467.792,-689.653 473.766,-693.302"/>
</g>
<!-- n12 -->
<g id="node12" class="node"><title>n12</title>
<g id="a_node12"><a xlink:title="[./model/ConvLSTM.lua]:94_">
<ellipse fill="none" stroke="black" cx="631.705" cy="-754.815" rx="83.6272" ry="35.2113"/>
<text text-anchor="middle" x="631.705" y="-764.615" font-family="Times,serif" font-size="14.00">Node12</text>
<text text-anchor="start" x="580.617" y="-750.615" font-family="Times,serif" font-size="14.00">module = nn.Tanh</text>
<text text-anchor="middle" x="631.705" y="-736.615" font-family="Times,serif" font-size="14.00">reverseMap = {}</text>
</a>
</g>
</g>
<!-- n12&#45;&gt;n6 -->
<g id="edge12" class="edge"><title>n12&#45;&gt;n6</title>
<path fill="none" stroke="black" d="M596.456,-722.498C584.358,-711.749 570.518,-699.454 557.254,-687.669"/>
<polygon fill="black" stroke="black" points="559.329,-684.83 549.528,-680.805 554.679,-690.063 559.329,-684.83"/>
</g>
<!-- n13 -->
<g id="node13" class="node"><title>n13</title>
<g id="a_node13"><a xlink:title="[./model/ConvLSTM.lua]:85_&#45;3">
<ellipse fill="none" stroke="black" cx="743.705" cy="-638.205" rx="78.145" ry="45.011"/>
<text text-anchor="middle" x="743.705" y="-655.005" font-family="Times,serif" font-size="14.00">Node13</text>
<text text-anchor="start" x="696.5" y="-641.005" font-family="Times,serif" font-size="14.00">input = {}</text>
<text text-anchor="start" x="696.5" y="-627.005" font-family="Times,serif" font-size="14.00">selectindex = 3</text>
<text text-anchor="middle" x="743.705" y="-613.005" font-family="Times,serif" font-size="14.00">reverseMap = {}</text>
</a>
</g>
</g>
<!-- n13&#45;&gt;n7 -->
<g id="edge13" class="edge"><title>n13&#45;&gt;n7</title>
<path fill="none" stroke="black" d="M743.705,-592.606C743.705,-581.173 743.705,-568.874 743.705,-557.435"/>
<polygon fill="black" stroke="black" points="747.205,-557.219 743.705,-547.22 740.205,-557.22 747.205,-557.219"/>
</g>
<!-- n14 -->
<g id="node14" class="node"><title>n14</title>
<g id="a_node14"><a xlink:title="[./model/ConvLSTM.lua]:85_&#45;2">
<ellipse fill="none" stroke="black" cx="243.705" cy="-871.426" rx="78.145" ry="45.011"/>
<text text-anchor="middle" x="243.705" y="-888.226" font-family="Times,serif" font-size="14.00">Node14</text>
<text text-anchor="start" x="196.5" y="-874.226" font-family="Times,serif" font-size="14.00">input = {}</text>
<text text-anchor="start" x="196.5" y="-860.226" font-family="Times,serif" font-size="14.00">selectindex = 2</text>
<text text-anchor="middle" x="243.705" y="-846.226" font-family="Times,serif" font-size="14.00">reverseMap = {}</text>
</a>
</g>
</g>
<!-- n14&#45;&gt;n9 -->
<g id="edge15" class="edge"><title>n14&#45;&gt;n9</title>
<path fill="none" stroke="black" d="M234.495,-826.442C232.69,-817.821 230.795,-808.775 228.988,-800.143"/>
<polygon fill="black" stroke="black" points="232.392,-799.321 226.916,-790.251 225.54,-800.756 232.392,-799.321"/>
</g>
<!-- n15 -->
<g id="node15" class="node"><title>n15</title>
<g id="a_node15"><a xlink:title="[[C]]:&#45;1_&#45;2">
<ellipse fill="none" stroke="black" cx="94.7054" cy="-1871.42" rx="78.145" ry="45.011"/>
<text text-anchor="middle" x="94.7054" y="-1888.22" font-family="Times,serif" font-size="14.00">Node15</text>
<text text-anchor="start" x="47.4998" y="-1874.22" font-family="Times,serif" font-size="14.00">input = {}</text>
<text text-anchor="start" x="47.4998" y="-1860.22" font-family="Times,serif" font-size="14.00">selectindex = 2</text>
<text text-anchor="middle" x="94.7054" y="-1846.22" font-family="Times,serif" font-size="14.00">reverseMap = {}</text>
</a>
</g>
</g>
<!-- n15&#45;&gt;n10 -->
<g id="edge16" class="edge"><title>n15&#45;&gt;n10</title>
<path fill="none" stroke="black" d="M94.7054,-1826.16C94.7054,-1787.77 94.7054,-1732.44 94.7054,-1693.89"/>
<polygon fill="black" stroke="black" points="98.2054,-1693.49 94.7054,-1683.49 91.2054,-1693.49 98.2054,-1693.49"/>
</g>
<!-- n16 -->
<g id="node16" class="node"><title>n16</title>
<g id="a_node16"><a xlink:title="[./model/ConvLSTM.lua]:85_&#45;1">
<ellipse fill="none" stroke="black" cx="436.705" cy="-871.426" rx="78.145" ry="45.011"/>
<text text-anchor="middle" x="436.705" y="-888.226" font-family="Times,serif" font-size="14.00">Node16</text>
<text text-anchor="start" x="389.5" y="-874.226" font-family="Times,serif" font-size="14.00">input = {}</text>
<text text-anchor="start" x="389.5" y="-860.226" font-family="Times,serif" font-size="14.00">selectindex = 1</text>
<text text-anchor="middle" x="436.705" y="-846.226" font-family="Times,serif" font-size="14.00">reverseMap = {}</text>
</a>
</g>
</g>
<!-- n16&#45;&gt;n11 -->
<g id="edge17" class="edge"><title>n16&#45;&gt;n11</title>
<path fill="none" stroke="black" d="M435.159,-826.114C434.865,-817.695 434.557,-808.881 434.263,-800.452"/>
<polygon fill="black" stroke="black" points="437.76,-800.285 433.913,-790.414 430.764,-800.53 437.76,-800.285"/>
</g>
<!-- n17 -->
<g id="node17" class="node"><title>n17</title>
<g id="a_node17"><a xlink:title="[./model/ConvLSTM.lua]:85_&#45;4">
<ellipse fill="none" stroke="black" cx="619.705" cy="-871.426" rx="78.145" ry="45.011"/>
<text text-anchor="middle" x="619.705" y="-888.226" font-family="Times,serif" font-size="14.00">Node17</text>
<text text-anchor="start" x="572.5" y="-874.226" font-family="Times,serif" font-size="14.00">input = {}</text>
<text text-anchor="start" x="572.5" y="-860.226" font-family="Times,serif" font-size="14.00">selectindex = 4</text>
<text text-anchor="middle" x="619.705" y="-846.226" font-family="Times,serif" font-size="14.00">reverseMap = {}</text>
</a>
</g>
</g>
<!-- n17&#45;&gt;n12 -->
<g id="edge18" class="edge"><title>n17&#45;&gt;n12</title>
<path fill="none" stroke="black" d="M624.345,-826.114C625.226,-817.695 626.149,-808.881 627.032,-800.452"/>
<polygon fill="black" stroke="black" points="630.522,-800.724 628.083,-790.414 623.56,-799.995 630.522,-800.724"/>
</g>
<!-- n18 -->
<g id="node18" class="node"><title>n18</title>
<g id="a_node18"><a xlink:title="[./model/ConvLSTM.lua]:85_ split at [./model/ConvLSTM.lua]:85&#45;mnode">
<ellipse fill="none" stroke="black" cx="438.705" cy="-988.036" rx="81.6087" ry="35.2113"/>
<text text-anchor="middle" x="438.705" y="-997.836" font-family="Times,serif" font-size="14.00">Node18</text>
<text text-anchor="start" x="388.861" y="-983.836" font-family="Times,serif" font-size="14.00">reverseMap = {}</text>
<text text-anchor="middle" x="438.705" y="-969.836" font-family="Times,serif" font-size="14.00">nSplitOutputs = 4</text>
</a>
</g>
</g>
<!-- n18&#45;&gt;n13 -->
<g id="edge19" class="edge"><title>n18&#45;&gt;n13</title>
<path fill="none" stroke="black" d="M516.01,-976.367C585.874,-965.078 681.508,-944.967 706.705,-916.68 761.058,-855.664 759.975,-755.101 752.829,-693.26"/>
<polygon fill="black" stroke="black" points="756.298,-692.796 751.587,-683.306 749.352,-693.662 756.298,-692.796"/>
</g>
<!-- n18&#45;&gt;n14 -->
<g id="edge20" class="edge"><title>n18&#45;&gt;n14</title>
<path fill="none" stroke="black" d="M391.003,-958.999C365.568,-944.049 333.951,-925.467 306.539,-909.355"/>
<polygon fill="black" stroke="black" points="308.194,-906.269 297.799,-904.219 304.647,-912.303 308.194,-906.269"/>
</g>
<!-- n18&#45;&gt;n16 -->
<g id="edge22" class="edge"><title>n18&#45;&gt;n16</title>
<path fill="none" stroke="black" d="M438.105,-952.649C437.965,-944.592 437.811,-935.812 437.66,-927.113"/>
<polygon fill="black" stroke="black" points="441.157,-926.923 437.483,-916.985 434.158,-927.045 441.157,-926.923"/>
</g>
<!-- n18&#45;&gt;n17 -->
<g id="edge23" class="edge"><title>n18&#45;&gt;n17</title>
<path fill="none" stroke="black" d="M483.912,-958.41C506.673,-943.998 534.584,-926.325 559.169,-910.758"/>
<polygon fill="black" stroke="black" points="561.136,-913.655 567.712,-905.348 557.391,-907.741 561.136,-913.655"/>
</g>
<!-- n19 -->
<g id="node19" class="node"><title>n19</title>
<g id="a_node19"><a xlink:title="[[C]]:&#45;1_ split at [...s/pwang8/torch/install/share/lua/5.1/nngraph/gmodule.lua]:96&#45;mnode">
<ellipse fill="none" stroke="black" cx="285.705" cy="-2114.54" rx="81.6087" ry="35.2113"/>
<text text-anchor="middle" x="285.705" y="-2124.34" font-family="Times,serif" font-size="14.00">Node19</text>
<text text-anchor="start" x="235.861" y="-2110.34" font-family="Times,serif" font-size="14.00">reverseMap = {}</text>
<text text-anchor="middle" x="285.705" y="-2096.34" font-family="Times,serif" font-size="14.00">nSplitOutputs = 3</text>
</a>
</g>
</g>
<!-- n19&#45;&gt;n15 -->
<g id="edge21" class="edge"><title>n19&#45;&gt;n15</title>
<path fill="none" stroke="black" d="M243.299,-2083.98C228.216,-2072.29 211.754,-2058.09 198.705,-2043.18 167.018,-2006.98 139.155,-1959.91 120.265,-1924.37"/>
<polygon fill="black" stroke="black" points="123.164,-1922.36 115.42,-1915.13 116.965,-1925.61 123.164,-1922.36"/>
</g>
<!-- n29 -->
<g id="node29" class="node"><title>n29</title>
<g id="a_node29"><a xlink:title="[[C]]:&#45;1_&#45;3">
<ellipse fill="none" stroke="black" cx="285.705" cy="-1997.93" rx="78.145" ry="45.011"/>
<text text-anchor="middle" x="285.705" y="-2014.73" font-family="Times,serif" font-size="14.00">Node29</text>
<text text-anchor="start" x="238.5" y="-2000.73" font-family="Times,serif" font-size="14.00">input = {}</text>
<text text-anchor="start" x="238.5" y="-1986.73" font-family="Times,serif" font-size="14.00">selectindex = 3</text>
<text text-anchor="middle" x="285.705" y="-1972.73" font-family="Times,serif" font-size="14.00">reverseMap = {}</text>
</a>
</g>
</g>
<!-- n19&#45;&gt;n29 -->
<g id="edge35" class="edge"><title>n19&#45;&gt;n29</title>
<path fill="none" stroke="black" d="M285.705,-2079.15C285.705,-2071.1 285.705,-2062.32 285.705,-2053.62"/>
<polygon fill="black" stroke="black" points="289.205,-2053.49 285.705,-2043.49 282.205,-2053.49 289.205,-2053.49"/>
</g>
<!-- n32 -->
<g id="node32" class="node"><title>n32</title>
<g id="a_node32"><a xlink:title="[[C]]:&#45;1_&#45;1">
<ellipse fill="none" stroke="black" cx="477.705" cy="-1997.93" rx="78.145" ry="45.011"/>
<text text-anchor="middle" x="477.705" y="-2014.73" font-family="Times,serif" font-size="14.00">Node32</text>
<text text-anchor="start" x="430.5" y="-2000.73" font-family="Times,serif" font-size="14.00">input = {}</text>
<text text-anchor="start" x="430.5" y="-1986.73" font-family="Times,serif" font-size="14.00">selectindex = 1</text>
<text text-anchor="middle" x="477.705" y="-1972.73" font-family="Times,serif" font-size="14.00">reverseMap = {}</text>
</a>
</g>
</g>
<!-- n19&#45;&gt;n32 -->
<g id="edge38" class="edge"><title>n19&#45;&gt;n32</title>
<path fill="none" stroke="black" d="M332.674,-2085.5C357.51,-2070.68 388.331,-2052.28 415.165,-2036.26"/>
<polygon fill="black" stroke="black" points="417.305,-2039.06 424.098,-2030.93 413.718,-2033.05 417.305,-2039.06"/>
</g>
<!-- n20 -->
<g id="node20" class="node"><title>n20</title>
<g id="a_node20"><a xlink:title="[./model/ConvLSTM.lua]:85_">
<ellipse fill="none" stroke="black" cx="438.705" cy="-1094.75" rx="104.429" ry="35.2113"/>
<text text-anchor="middle" x="438.705" y="-1104.55" font-family="Times,serif" font-size="14.00">Node20</text>
<text text-anchor="start" x="372.838" y="-1090.55" font-family="Times,serif" font-size="14.00">module = nn.SplitTable</text>
<text text-anchor="middle" x="438.705" y="-1076.55" font-family="Times,serif" font-size="14.00">reverseMap = {}</text>
</a>
</g>
</g>
<!-- n20&#45;&gt;n18 -->
<g id="edge24" class="edge"><title>n20&#45;&gt;n18</title>
<path fill="none" stroke="black" d="M438.705,-1059.17C438.705,-1051.04 438.705,-1042.26 438.705,-1033.75"/>
<polygon fill="black" stroke="black" points="442.205,-1033.58 438.705,-1023.58 435.205,-1033.58 442.205,-1033.58"/>
</g>
<!-- n21 -->
<g id="node21" class="node"><title>n21</title>
<g id="a_node21"><a xlink:title="[[C]]:&#45;1_">
<ellipse fill="none" stroke="black" cx="285.705" cy="-2221.25" rx="78.145" ry="35.2113"/>
<text text-anchor="middle" x="285.705" y="-2231.05" font-family="Times,serif" font-size="14.00">Node21</text>
<text text-anchor="start" x="238.5" y="-2217.05" font-family="Times,serif" font-size="14.00">input = {}</text>
<text text-anchor="middle" x="285.705" y="-2203.05" font-family="Times,serif" font-size="14.00">reverseMap = {}</text>
</a>
</g>
</g>
<!-- n21&#45;&gt;n19 -->
<g id="edge25" class="edge"><title>n21&#45;&gt;n19</title>
<path fill="none" stroke="black" d="M285.705,-2185.67C285.705,-2177.54 285.705,-2168.76 285.705,-2160.26"/>
<polygon fill="black" stroke="black" points="289.205,-2160.08 285.705,-2150.08 282.205,-2160.08 289.205,-2160.08"/>
</g>
<!-- n22 -->
<g id="node22" class="node"><title>n22</title>
<g id="a_node22"><a xlink:title="[./model/ConvLSTM.lua]:81_">
<ellipse fill="none" stroke="black" cx="438.705" cy="-1201.46" rx="118.787" ry="35.2113"/>
<text text-anchor="middle" x="438.705" y="-1211.26" font-family="Times,serif" font-size="14.00">Node22</text>
<text text-anchor="start" x="362.635" y="-1197.26" font-family="Times,serif" font-size="14.00">module = nn.Reshape(4x8)</text>
<text text-anchor="middle" x="438.705" y="-1183.26" font-family="Times,serif" font-size="14.00">reverseMap = {}</text>
</a>
</g>
</g>
<!-- n22&#45;&gt;n20 -->
<g id="edge26" class="edge"><title>n22&#45;&gt;n20</title>
<path fill="none" stroke="black" d="M438.705,-1165.88C438.705,-1157.75 438.705,-1148.97 438.705,-1140.46"/>
<polygon fill="black" stroke="black" points="442.205,-1140.29 438.705,-1130.29 435.205,-1140.29 442.205,-1140.29"/>
</g>
<!-- n23 -->
<g id="node23" class="node"><title>n23</title>
<g id="a_node23"><a xlink:title="[./model/ConvLSTM.lua]:79_">
<ellipse fill="none" stroke="black" cx="438.705" cy="-1318.07" rx="135.591" ry="45.011"/>
<text text-anchor="middle" x="438.705" y="-1334.87" font-family="Times,serif" font-size="14.00">Node23</text>
<text text-anchor="start" x="350.86" y="-1320.87" font-family="Times,serif" font-size="14.00">module = nn.CAddTable</text>
<text text-anchor="start" x="350.86" y="-1306.87" font-family="Times,serif" font-size="14.00">reverseMap = {}</text>
<text text-anchor="middle" x="438.705" y="-1292.87" font-family="Times,serif" font-size="14.00">mapindex = {Node24,Node25}</text>
</a>
</g>
</g>
<!-- n23&#45;&gt;n22 -->
<g id="edge27" class="edge"><title>n23&#45;&gt;n22</title>
<path fill="none" stroke="black" d="M438.705,-1272.76C438.705,-1264.34 438.705,-1255.52 438.705,-1247.09"/>
<polygon fill="black" stroke="black" points="442.205,-1247.06 438.705,-1237.06 435.205,-1247.06 442.205,-1247.06"/>
</g>
<!-- n24 -->
<g id="node24" class="node"><title>n24</title>
<g id="a_node24"><a xlink:title="[./model/ConvLSTM.lua]:77_">
<ellipse fill="none" stroke="black" cx="510.705" cy="-1434.68" rx="139.734" ry="35.2113"/>
<text text-anchor="middle" x="510.705" y="-1444.48" font-family="Times,serif" font-size="14.00">i2h_1 (24)</text>
<text text-anchor="start" x="419.804" y="-1430.48" font-family="Times,serif" font-size="14.00">module = nn.Linear(1058 &#45;&gt; 32)</text>
<text text-anchor="middle" x="510.705" y="-1416.48" font-family="Times,serif" font-size="14.00">reverseMap = {}</text>
</a>
</g>
</g>
<!-- n24&#45;&gt;n23 -->
<g id="edge28" class="edge"><title>n24&#45;&gt;n23</title>
<path fill="none" stroke="black" d="M489.298,-1399.6C483.712,-1390.71 477.562,-1380.92 471.532,-1371.32"/>
<polygon fill="black" stroke="black" points="474.331,-1369.2 466.047,-1362.59 468.403,-1372.92 474.331,-1369.2"/>
</g>
<!-- n25 -->
<g id="node25" class="node"><title>n25</title>
<g id="a_node25"><a xlink:title="[./model/ConvLSTM.lua]:78_">
<ellipse fill="none" stroke="black" cx="268.705" cy="-1541.39" rx="125.035" ry="35.2113"/>
<text text-anchor="middle" x="268.705" y="-1551.19" font-family="Times,serif" font-size="14.00">h2h_1 (25)</text>
<text text-anchor="start" x="188.304" y="-1537.19" font-family="Times,serif" font-size="14.00">module = nn.Linear(8 &#45;&gt; 32)</text>
<text text-anchor="middle" x="268.705" y="-1523.19" font-family="Times,serif" font-size="14.00">reverseMap = {}</text>
</a>
</g>
</g>
<!-- n25&#45;&gt;n23 -->
<g id="edge29" class="edge"><title>n25&#45;&gt;n23</title>
<path fill="none" stroke="black" d="M288.682,-1506.42C306.497,-1477.08 333.977,-1434.05 361.705,-1399.32 369.962,-1388.98 379.316,-1378.43 388.588,-1368.51"/>
<polygon fill="black" stroke="black" points="391.304,-1370.73 395.643,-1361.07 386.223,-1365.92 391.304,-1370.73"/>
</g>
<!-- n26 -->
<g id="node26" class="node"><title>n26</title>
<g id="a_node26"><a xlink:title="[./model/ConvLSTM.lua]:59_">
<ellipse fill="none" stroke="black" cx="535.705" cy="-1541.39" rx="123.686" ry="35.2113"/>
<text text-anchor="middle" x="535.705" y="-1551.19" font-family="Times,serif" font-size="14.00">Node26</text>
<text text-anchor="start" x="456.135" y="-1537.19" font-family="Times,serif" font-size="14.00">module = nn.Reshape(1058)</text>
<text text-anchor="middle" x="535.705" y="-1523.19" font-family="Times,serif" font-size="14.00">reverseMap = {}</text>
</a>
</g>
</g>
<!-- n26&#45;&gt;n24 -->
<g id="edge30" class="edge"><title>n26&#45;&gt;n24</title>
<path fill="none" stroke="black" d="M527.519,-1506.1C525.512,-1497.69 523.336,-1488.58 521.236,-1479.78"/>
<polygon fill="black" stroke="black" points="524.636,-1478.95 518.91,-1470.04 517.828,-1480.58 524.636,-1478.95"/>
</g>
<!-- n27 -->
<g id="node27" class="node"><title>n27</title>
<g id="a_node27"><a xlink:title="[./model/ConvLSTM.lua]:24_">
<ellipse fill="none" stroke="black" cx="285.705" cy="-1871.42" rx="94.9112" ry="35.2113"/>
<text text-anchor="middle" x="285.705" y="-1881.22" font-family="Times,serif" font-size="14.00">Node27</text>
<text text-anchor="start" x="226.739" y="-1867.22" font-family="Times,serif" font-size="14.00">module = nn.Identity</text>
<text text-anchor="middle" x="285.705" y="-1853.22" font-family="Times,serif" font-size="14.00">reverseMap = {}</text>
</a>
</g>
</g>
<!-- n27&#45;&gt;n25 -->
<g id="edge31" class="edge"><title>n27&#45;&gt;n25</title>
<path fill="none" stroke="black" d="M283.918,-1835.93C280.819,-1776.13 274.451,-1653.25 271.019,-1587.03"/>
<polygon fill="black" stroke="black" points="274.507,-1586.71 270.494,-1576.9 267.516,-1587.07 274.507,-1586.71"/>
</g>
<!-- n28 -->
<g id="node28" class="node"><title>n28</title>
<g id="a_node28"><a xlink:title="[./model/ConvLSTM.lua]:45_">
<ellipse fill="none" stroke="black" cx="529.705" cy="-1648.1" rx="88.2147" ry="35.2113"/>
<text text-anchor="middle" x="529.705" y="-1657.9" font-family="Times,serif" font-size="14.00">convnl_1 (28)</text>
<text text-anchor="start" x="475.404" y="-1643.9" font-family="Times,serif" font-size="14.00">module = nn.ReLU</text>
<text text-anchor="middle" x="529.705" y="-1629.9" font-family="Times,serif" font-size="14.00">reverseMap = {}</text>
</a>
</g>
</g>
<!-- n28&#45;&gt;n26 -->
<g id="edge32" class="edge"><title>n28&#45;&gt;n26</title>
<path fill="none" stroke="black" d="M531.687,-1612.52C532.153,-1604.39 532.656,-1595.61 533.143,-1587.1"/>
<polygon fill="black" stroke="black" points="536.648,-1587.11 533.726,-1576.93 529.66,-1586.71 536.648,-1587.11"/>
</g>
<!-- n29&#45;&gt;n27 -->
<g id="edge33" class="edge"><title>n29&#45;&gt;n27</title>
<path fill="none" stroke="black" d="M285.705,-1952.33C285.705,-1940.9 285.705,-1928.6 285.705,-1917.16"/>
<polygon fill="black" stroke="black" points="289.205,-1916.94 285.705,-1906.94 282.205,-1916.94 289.205,-1916.94"/>
</g>
<!-- n30 -->
<g id="node30" class="node"><title>n30</title>
<g id="a_node30"><a xlink:title="[./model/ConvLSTM.lua]:44_">
<ellipse fill="none" stroke="black" cx="505.705" cy="-1754.81" rx="191.064" ry="35.2113"/>
<text text-anchor="middle" x="505.705" y="-1764.61" font-family="Times,serif" font-size="14.00">conv_1 (30)</text>
<text text-anchor="start" x="378.625" y="-1750.61" font-family="Times,serif" font-size="14.00">module = nn.SpatialConvolution(1 &#45;&gt; 2, 2x2)</text>
<text text-anchor="middle" x="505.705" y="-1736.61" font-family="Times,serif" font-size="14.00">reverseMap = {}</text>
</a>
</g>
</g>
<!-- n30&#45;&gt;n28 -->
<g id="edge34" class="edge"><title>n30&#45;&gt;n28</title>
<path fill="none" stroke="black" d="M513.63,-1719.23C515.515,-1711.01 517.551,-1702.13 519.52,-1693.54"/>
<polygon fill="black" stroke="black" points="522.966,-1694.17 521.789,-1683.64 516.143,-1692.6 522.966,-1694.17"/>
</g>
<!-- n31 -->
<g id="node31" class="node"><title>n31</title>
<g id="a_node31"><a xlink:title="[./model/ConvLSTM.lua]:21_">
<ellipse fill="none" stroke="black" cx="496.705" cy="-1871.42" rx="94.9112" ry="35.2113"/>
<text text-anchor="middle" x="496.705" y="-1881.22" font-family="Times,serif" font-size="14.00">Node31</text>
<text text-anchor="start" x="437.739" y="-1867.22" font-family="Times,serif" font-size="14.00">module = nn.Identity</text>
<text text-anchor="middle" x="496.705" y="-1853.22" font-family="Times,serif" font-size="14.00">reverseMap = {}</text>
</a>
</g>
</g>
<!-- n31&#45;&gt;n30 -->
<g id="edge36" class="edge"><title>n31&#45;&gt;n30</title>
<path fill="none" stroke="black" d="M499.406,-1836.03C500.287,-1824.81 501.278,-1812.19 502.209,-1800.34"/>
<polygon fill="black" stroke="black" points="505.713,-1800.42 503.007,-1790.17 498.735,-1799.87 505.713,-1800.42"/>
</g>
<!-- n32&#45;&gt;n31 -->
<g id="edge37" class="edge"><title>n32&#45;&gt;n31</title>
<path fill="none" stroke="black" d="M484.458,-1952.68C486.239,-1941 488.163,-1928.4 489.945,-1916.72"/>
<polygon fill="black" stroke="black" points="493.419,-1917.15 491.468,-1906.74 486.499,-1916.1 493.419,-1917.15"/>
</g>
</g>
</svg>
