<?xml version="1.0" encoding="UTF-8" standalone="no"?>
<!DOCTYPE svg PUBLIC "-//W3C//DTD SVG 1.1//EN"
 "http://www.w3.org/Graphics/SVG/1.1/DTD/svg11.dtd">
<!-- Generated by graphviz version 2.38.0 (20140413.2041)
 -->
<!-- Title: G Pages: 1 -->
<svg width="506pt" height="992pt"
 viewBox="0.00 0.00 506.14 991.79" xmlns="http://www.w3.org/2000/svg" xmlns:xlink="http://www.w3.org/1999/xlink">
<g id="graph0" class="graph" transform="scale(1 1) rotate(0) translate(4 987.793)">
<title>G</title>
<polygon fill="white" stroke="none" points="-4,4 -4,-987.793 502.136,-987.793 502.136,4 -4,4"/>
<!-- n1 -->
<g id="node1" class="node"><title>n1</title>
<g id="a_node1"><a xlink:title="[./model/RNN.lua]:32_">
<ellipse fill="none" stroke="black" cx="249.068" cy="-268.576" rx="83.6272" ry="35.2113"/>
<text text-anchor="middle" x="249.068" y="-278.376" font-family="Times,serif" font-size="14.00">Node1</text>
<text text-anchor="start" x="197.98" y="-264.376" font-family="Times,serif" font-size="14.00">module = nn.Tanh</text>
<text text-anchor="middle" x="249.068" y="-250.376" font-family="Times,serif" font-size="14.00">reverseMap = {}</text>
</a>
</g>
</g>
<!-- n2 -->
<g id="node2" class="node"><title>n2</title>
<g id="a_node2"><a xlink:title="[[C]]:&#45;1_">
<ellipse fill="none" stroke="black" cx="249.068" cy="-45.2548" rx="125.792" ry="45.011"/>
<text text-anchor="middle" x="249.068" y="-62.0548" font-family="Times,serif" font-size="14.00">Node2</text>
<text text-anchor="start" x="168.223" y="-48.0548" font-family="Times,serif" font-size="14.00">input = {}</text>
<text text-anchor="start" x="168.223" y="-34.0548" font-family="Times,serif" font-size="14.00">mapindex = {Node1,Node3}</text>
<text text-anchor="middle" x="249.068" y="-20.0548" font-family="Times,serif" font-size="14.00">reverseMap = {}</text>
</a>
</g>
</g>
<!-- n1&#45;&gt;n2 -->
<g id="edge1" class="edge"><title>n1&#45;&gt;n2</title>
<path fill="none" stroke="black" d="M216.861,-235.619C207.676,-224.425 198.865,-211.146 194.068,-197.22 183.832,-167.507 184.769,-156.529 194.068,-126.51 197.174,-116.483 202.013,-106.596 207.56,-97.3708"/>
<polygon fill="black" stroke="black" points="210.635,-99.0588 213.062,-88.7459 204.733,-95.294 210.635,-99.0588"/>
</g>
<!-- n3 -->
<g id="node3" class="node"><title>n3</title>
<g id="a_node3"><a xlink:title="[./model/RNN.lua]:39_">
<ellipse fill="none" stroke="black" cx="323.068" cy="-161.865" rx="120.136" ry="35.2113"/>
<text text-anchor="middle" x="323.068" y="-171.665" font-family="Times,serif" font-size="14.00">Node3</text>
<text text-anchor="start" x="246.167" y="-157.665" font-family="Times,serif" font-size="14.00">module = nn.Linear(8 &#45;&gt; 4)</text>
<text text-anchor="middle" x="323.068" y="-143.665" font-family="Times,serif" font-size="14.00">reverseMap = {}</text>
</a>
</g>
</g>
<!-- n1&#45;&gt;n3 -->
<g id="edge4" class="edge"><title>n1&#45;&gt;n3</title>
<path fill="none" stroke="black" d="M272.482,-234.445C279.032,-225.176 286.242,-214.975 293.114,-205.25"/>
<polygon fill="black" stroke="black" points="296.129,-207.048 299.042,-196.862 290.413,-203.008 296.129,-207.048"/>
</g>
<!-- n3&#45;&gt;n2 -->
<g id="edge2" class="edge"><title>n3&#45;&gt;n2</title>
<path fill="none" stroke="black" d="M301.066,-126.788C295.266,-117.806 288.875,-107.908 282.617,-98.2149"/>
<polygon fill="black" stroke="black" points="285.534,-96.2806 277.17,-89.7781 279.653,-100.078 285.534,-96.2806"/>
</g>
<!-- n4 -->
<g id="node4" class="node"><title>n4</title>
<g id="a_node4"><a xlink:title="[./model/RNN.lua]:32_">
<ellipse fill="none" stroke="black" cx="249.068" cy="-385.186" rx="125.792" ry="45.011"/>
<text text-anchor="middle" x="249.068" y="-401.986" font-family="Times,serif" font-size="14.00">Node4</text>
<text text-anchor="start" x="168.223" y="-387.986" font-family="Times,serif" font-size="14.00">module = nn.CAddTable</text>
<text text-anchor="start" x="168.223" y="-373.986" font-family="Times,serif" font-size="14.00">reverseMap = {}</text>
<text text-anchor="middle" x="249.068" y="-359.986" font-family="Times,serif" font-size="14.00">mapindex = {Node5,Node6}</text>
</a>
</g>
</g>
<!-- n4&#45;&gt;n1 -->
<g id="edge3" class="edge"><title>n4&#45;&gt;n1</title>
<path fill="none" stroke="black" d="M249.068,-339.875C249.068,-331.455 249.068,-322.641 249.068,-314.212"/>
<polygon fill="black" stroke="black" points="252.568,-314.174 249.068,-304.174 245.568,-314.174 252.568,-314.174"/>
</g>
<!-- n5 -->
<g id="node5" class="node"><title>n5</title>
<g id="a_node5"><a xlink:title="[./model/RNN.lua]:30_">
<ellipse fill="none" stroke="black" cx="120.068" cy="-501.796" rx="120.136" ry="35.2113"/>
<text text-anchor="middle" x="120.068" y="-511.596" font-family="Times,serif" font-size="14.00">Node5</text>
<text text-anchor="start" x="43.1671" y="-497.596" font-family="Times,serif" font-size="14.00">module = nn.Linear(5 &#45;&gt; 8)</text>
<text text-anchor="middle" x="120.068" y="-483.596" font-family="Times,serif" font-size="14.00">reverseMap = {}</text>
</a>
</g>
</g>
<!-- n5&#45;&gt;n4 -->
<g id="edge5" class="edge"><title>n5&#45;&gt;n4</title>
<path fill="none" stroke="black" d="M157.034,-467.953C168.749,-457.546 181.955,-445.813 194.63,-434.552"/>
<polygon fill="black" stroke="black" points="197.284,-436.876 202.435,-427.617 192.634,-431.643 197.284,-436.876"/>
</g>
<!-- n6 -->
<g id="node6" class="node"><title>n6</title>
<g id="a_node6"><a xlink:title="[./model/RNN.lua]:31_">
<ellipse fill="none" stroke="black" cx="378.068" cy="-501.796" rx="120.136" ry="35.2113"/>
<text text-anchor="middle" x="378.068" y="-511.596" font-family="Times,serif" font-size="14.00">Node6</text>
<text text-anchor="start" x="301.167" y="-497.596" font-family="Times,serif" font-size="14.00">module = nn.Linear(8 &#45;&gt; 8)</text>
<text text-anchor="middle" x="378.068" y="-483.596" font-family="Times,serif" font-size="14.00">reverseMap = {}</text>
</a>
</g>
</g>
<!-- n6&#45;&gt;n4 -->
<g id="edge6" class="edge"><title>n6&#45;&gt;n4</title>
<path fill="none" stroke="black" d="M341.102,-467.953C329.387,-457.546 316.181,-445.813 303.506,-434.552"/>
<polygon fill="black" stroke="black" points="305.502,-431.643 295.701,-427.617 300.852,-436.876 305.502,-431.643"/>
</g>
<!-- n7 -->
<g id="node7" class="node"><title>n7</title>
<g id="a_node7"><a xlink:title="[./model/RNN.lua]:7_">
<ellipse fill="none" stroke="black" cx="133.068" cy="-608.507" rx="94.9112" ry="35.2113"/>
<text text-anchor="middle" x="133.068" y="-618.307" font-family="Times,serif" font-size="14.00">Node7</text>
<text text-anchor="start" x="74.1012" y="-604.307" font-family="Times,serif" font-size="14.00">module = nn.Identity</text>
<text text-anchor="middle" x="133.068" y="-590.307" font-family="Times,serif" font-size="14.00">reverseMap = {}</text>
</a>
</g>
</g>
<!-- n7&#45;&gt;n5 -->
<g id="edge7" class="edge"><title>n7&#45;&gt;n5</title>
<path fill="none" stroke="black" d="M128.775,-572.93C127.766,-564.799 126.676,-556.018 125.62,-547.513"/>
<polygon fill="black" stroke="black" points="129.062,-546.829 124.356,-537.336 122.115,-547.691 129.062,-546.829"/>
</g>
<!-- n8 -->
<g id="node8" class="node"><title>n8</title>
<g id="a_node8"><a xlink:title="[./model/RNN.lua]:11_">
<ellipse fill="none" stroke="black" cx="365.068" cy="-608.507" rx="94.9112" ry="35.2113"/>
<text text-anchor="middle" x="365.068" y="-618.307" font-family="Times,serif" font-size="14.00">Node8</text>
<text text-anchor="start" x="306.101" y="-604.307" font-family="Times,serif" font-size="14.00">module = nn.Identity</text>
<text text-anchor="middle" x="365.068" y="-590.307" font-family="Times,serif" font-size="14.00">reverseMap = {}</text>
</a>
</g>
</g>
<!-- n8&#45;&gt;n6 -->
<g id="edge8" class="edge"><title>n8&#45;&gt;n6</title>
<path fill="none" stroke="black" d="M369.361,-572.93C370.37,-564.799 371.46,-556.018 372.516,-547.513"/>
<polygon fill="black" stroke="black" points="376.021,-547.691 373.78,-537.336 369.074,-546.829 376.021,-547.691"/>
</g>
<!-- n9 -->
<g id="node9" class="node"><title>n9</title>
<g id="a_node9"><a xlink:title="[[C]]:&#45;1_&#45;1">
<ellipse fill="none" stroke="black" cx="141.068" cy="-725.117" rx="78.145" ry="45.011"/>
<text text-anchor="middle" x="141.068" y="-741.917" font-family="Times,serif" font-size="14.00">Node9</text>
<text text-anchor="start" x="93.8624" y="-727.917" font-family="Times,serif" font-size="14.00">input = {}</text>
<text text-anchor="start" x="93.8624" y="-713.917" font-family="Times,serif" font-size="14.00">selectindex = 1</text>
<text text-anchor="middle" x="141.068" y="-699.917" font-family="Times,serif" font-size="14.00">reverseMap = {}</text>
</a>
</g>
</g>
<!-- n9&#45;&gt;n7 -->
<g id="edge9" class="edge"><title>n9&#45;&gt;n7</title>
<path fill="none" stroke="black" d="M137.975,-679.806C137.387,-671.386 136.772,-662.572 136.184,-654.143"/>
<polygon fill="black" stroke="black" points="139.671,-653.837 135.483,-644.105 132.688,-654.324 139.671,-653.837"/>
</g>
<!-- n10 -->
<g id="node10" class="node"><title>n10</title>
<g id="a_node10"><a xlink:title="[[C]]:&#45;1_&#45;2">
<ellipse fill="none" stroke="black" cx="331.068" cy="-725.117" rx="78.145" ry="45.011"/>
<text text-anchor="middle" x="331.068" y="-741.917" font-family="Times,serif" font-size="14.00">Node10</text>
<text text-anchor="start" x="283.862" y="-727.917" font-family="Times,serif" font-size="14.00">input = {}</text>
<text text-anchor="start" x="283.862" y="-713.917" font-family="Times,serif" font-size="14.00">selectindex = 2</text>
<text text-anchor="middle" x="331.068" y="-699.917" font-family="Times,serif" font-size="14.00">reverseMap = {}</text>
</a>
</g>
</g>
<!-- n10&#45;&gt;n8 -->
<g id="edge10" class="edge"><title>n10&#45;&gt;n8</title>
<path fill="none" stroke="black" d="M344.019,-680.461C346.637,-671.636 349.391,-662.353 352.012,-653.516"/>
<polygon fill="black" stroke="black" points="355.413,-654.36 354.901,-643.777 348.702,-652.369 355.413,-654.36"/>
</g>
<!-- n11 -->
<g id="node11" class="node"><title>n11</title>
<g id="a_node11"><a xlink:title="[[C]]:&#45;1_ split at [...s/pwang8/torch/install/share/lua/5.1/nngraph/gmodule.lua]:96&#45;mnode">
<ellipse fill="none" stroke="black" cx="228.068" cy="-841.727" rx="81.6087" ry="35.2113"/>
<text text-anchor="middle" x="228.068" y="-851.527" font-family="Times,serif" font-size="14.00">Node11</text>
<text text-anchor="start" x="178.224" y="-837.527" font-family="Times,serif" font-size="14.00">reverseMap = {}</text>
<text text-anchor="middle" x="228.068" y="-823.527" font-family="Times,serif" font-size="14.00">nSplitOutputs = 2</text>
</a>
</g>
</g>
<!-- n11&#45;&gt;n9 -->
<g id="edge11" class="edge"><title>n11&#45;&gt;n9</title>
<path fill="none" stroke="black" d="M203.137,-807.884C195.299,-797.558 186.47,-785.928 177.983,-774.748"/>
<polygon fill="black" stroke="black" points="180.718,-772.561 171.883,-766.712 175.142,-776.793 180.718,-772.561"/>
</g>
<!-- n11&#45;&gt;n10 -->
<g id="edge12" class="edge"><title>n11&#45;&gt;n10</title>
<path fill="none" stroke="black" d="M257.033,-808.497C266.795,-797.634 277.903,-785.275 288.491,-773.493"/>
<polygon fill="black" stroke="black" points="291.274,-775.632 295.355,-765.855 286.068,-770.953 291.274,-775.632"/>
</g>
<!-- n12 -->
<g id="node12" class="node"><title>n12</title>
<g id="a_node12"><a xlink:title="[[C]]:&#45;1_">
<ellipse fill="none" stroke="black" cx="228.068" cy="-948.438" rx="78.145" ry="35.2113"/>
<text text-anchor="middle" x="228.068" y="-958.238" font-family="Times,serif" font-size="14.00">Node12</text>
<text text-anchor="start" x="180.862" y="-944.238" font-family="Times,serif" font-size="14.00">input = {}</text>
<text text-anchor="middle" x="228.068" y="-930.238" font-family="Times,serif" font-size="14.00">reverseMap = {}</text>
</a>
</g>
</g>
<!-- n12&#45;&gt;n11 -->
<g id="edge13" class="edge"><title>n12&#45;&gt;n11</title>
<path fill="none" stroke="black" d="M228.068,-912.861C228.068,-904.73 228.068,-895.949 228.068,-887.444"/>
<polygon fill="black" stroke="black" points="231.568,-887.267 228.068,-877.267 224.568,-887.267 231.568,-887.267"/>
</g>
</g>
</svg>
